HIERARCHY
ROOT SpineBase
{
  OFFSET 0.000000 0.000000 0.000000
  CHANNELS 6 Xposition Yposition Zposition Zrotation Xrotation Yrotation
  JOINT SpineMid
  {
    OFFSET 0.000000 27.474233 0.000000
    CHANNELS 3 Zrotation Xrotation Yrotation
    JOINT SpineShoulder
    {
      OFFSET -0.433615 20.635705 -0.475480
      CHANNELS 3 Zrotation Xrotation Yrotation
      JOINT Neck
      {
        OFFSET -0.293393 6.852953 -0.475294
        CHANNELS 3 Zrotation Xrotation Yrotation
        JOINT Head
        {
          OFFSET -5.043242 10.974955 5.048781
          CHANNELS 3 Zrotation Xrotation Yrotation
          End Site
          {
            OFFSET 0 0 0
          }
        }
      }
      JOINT ShoulderLeft
      {
        OFFSET -15.270063 8.777173 13.898150
        CHANNELS 3 Zrotation Xrotation Yrotation
        JOINT ElbowLeft
        {
          OFFSET -0.165512 -9.281253 -24.607295
          CHANNELS 3 Zrotation Xrotation Yrotation
          JOINT WristLeft
          {
            OFFSET -13.413293 1.281035 -13.726204
            CHANNELS 3 Zrotation Xrotation Yrotation
            JOINT HandLeft
            {
              OFFSET -6.411897 -5.100519 1.326975
              CHANNELS 3 Zrotation Xrotation Yrotation
              JOINT HandTipLeft
              {
                OFFSET -2.017648 0.100328 0.049833
                CHANNELS 3 Zrotation Xrotation Yrotation
                End Site
                {
                  OFFSET 0 0 0
                }
              }
              JOINT ThumbLeft
              {
                OFFSET -1.192837 3.361659 -0.840281
                CHANNELS 3 Zrotation Xrotation Yrotation
                End Site
                {
                  OFFSET 0 0 0
                }
              }
            }
          }
        }
      }
      JOINT ShoulderRight
      {
        OFFSET 2.908883 -3.585875 -13.221888
        CHANNELS 3 Zrotation Xrotation Yrotation
        JOINT ElbowRight
        {
          OFFSET -0.180417 -23.786891 -7.847514
          CHANNELS 3 Zrotation Xrotation Yrotation
          JOINT WristRight
          {
            OFFSET -4.035580 -20.367134 -0.246920
            CHANNELS 3 Zrotation Xrotation Yrotation
            JOINT HandRight
            {
              OFFSET 0.040389 -7.966054 1.843873
              CHANNELS 3 Zrotation Xrotation Yrotation
              JOINT HandTipRight
              {
                OFFSET -1.397273 -7.614894 0.339321
                CHANNELS 3 Zrotation Xrotation Yrotation
                End Site
                {
                  OFFSET 0 0 0
                }
              }
              JOINT ThumbRight
              {
                OFFSET -4.450613 2.584760 4.077133
                CHANNELS 3 Zrotation Xrotation Yrotation
                End Site
                {
                  OFFSET 0 0 0
                }
              }
            }
          }
        }
      }
    }
  }
  JOINT HipLeft
  {
    OFFSET -3.537381 2.401206 -0.296632
    CHANNELS 3 Zrotation Xrotation Yrotation
    JOINT KneeLeft
    {
      OFFSET 13.839754 -31.275043 -9.068668
      CHANNELS 3 Zrotation Xrotation Yrotation
      JOINT AnkleLeft
      {
        OFFSET 2.192725 -38.607314 -5.837561
        CHANNELS 3 Zrotation Xrotation Yrotation
        JOINT FootLeft
        {
          OFFSET 4.963576 7.300519 -7.455546
          CHANNELS 3 Zrotation Xrotation Yrotation
          End Site
          {
            OFFSET 0 0 0
          }
        }
      }
    }
  }
  JOINT HipRight
  {
    OFFSET 2.913307 0.875560 -5.797821
    CHANNELS 3 Zrotation Xrotation Yrotation
    JOINT KneeRight
    {
      OFFSET 4.964699 -32.347574 -8.080305
      CHANNELS 3 Zrotation Xrotation Yrotation
      JOINT AnkleRight
      {
        OFFSET 8.119438 -27.669831 -4.302852
        CHANNELS 3 Zrotation Xrotation Yrotation
        JOINT FootRight
        {
          OFFSET -3.226286 -6.304637 -1.756909
          CHANNELS 3 Zrotation Xrotation Yrotation
          End Site
          {
            OFFSET 0 0 0
          }
        }
      }
    }
  }
}
MOTION
Frames: 10
Frame Time: 0.033333
21.670209 72.817812 236.073328 0.540163 -0.041070 33.961814 -1.223906 -0.032718 -33.984583 -0.804247 0.011567 -0.087415 4.224044 2.624886 -0.467786 0.000000 0.000000 0.000000 1.259504 0.742458 0.110981 -0.000000 0.000000 0.000000 -0.000000 0.000000 0.000000 1.535435 0.204363 2.632163 0.000000 0.000000 0.000000 0.000000 0.000000 0.000000 1.556079 -0.093411 0.018111 -0.231673 2.543738 -0.247734 0.638625 -2.725354 0.519260 0.761905 0.476199 -0.002213 0.000000 0.000000 0.000000 0.000000 0.000000 0.000000 4.056003 5.355573 -31.545562 0.308389 -10.485061 -2.952779 7.466788 -0.544423 12.757376 0.000000 0.000000 0.000000 1.503460 2.169048 -33.748892 -0.586220 -2.595088 -0.266922 0.022616 -1.175480 0.597244 0.000000 0.000000 0.000000
21.551849 73.009208 236.210422 0.599755 0.038449 33.175378 -0.523038 0.296003 -33.174228 -1.136132 -0.623234 -0.111667 4.731280 3.237041 -0.466889 0.000000 0.000000 0.000000 1.134982 0.625324 0.099294 -0.000000 0.000000 0.000000 -0.000000 0.000000 0.000000 1.896996 0.253051 3.104441 0.000000 0.000000 0.000000 0.000000 0.000000 0.000000 1.576103 -0.248918 -0.040909 -0.299904 2.849316 -0.255657 0.267961 -3.209230 0.493292 2.029810 1.686674 -0.117371 0.000000 0.000000 0.000000 0.000000 0.000000 0.000000 3.396479 3.571948 -31.603739 -1.757201 -8.073352 -1.966774 8.804156 2.426739 9.698448 0.000000 0.000000 0.000000 1.581921 2.279260 -32.960468 -0.688621 -2.808498 -0.277956 -0.292795 -0.984474 0.583506 0.000000 0.000000 0.000000
21.514598 73.027841 236.340483 0.578350 0.049802 36.171594 -0.496271 0.301140 -36.170541 -1.256022 -0.672055 -0.123263 4.682044 2.372952 -0.765437 0.000000 0.000000 0.000000 1.254660 0.674594 0.108510 -0.000000 0.000000 0.000000 -0.000000 0.000000 0.000000 1.994855 0.261379 3.152538 0.000000 0.000000 0.000000 0.000000 0.000000 0.000000 1.740846 -0.217771 -0.046901 -0.372595 3.041438 -0.273996 -0.147482 -3.251254 0.405882 3.719518 2.809309 -0.259889 0.000000 0.000000 0.000000 0.000000 0.000000 0.000000 3.749969 1.827417 -35.343808 -3.964113 -5.915114 -1.030277 9.208938 3.239599 7.278255 0.000000 0.000000 0.000000 1.500909 1.945962 -35.986390 -0.650659 -2.503852 -0.237541 -0.647214 -1.186957 0.781067 0.000000 0.000000 0.000000
21.510694 72.734394 236.394796 0.354965 -0.058987 40.218108 -1.147739 0.050749 -40.243540 -1.037902 -0.060091 -0.110764 4.509097 1.019504 -1.153452 0.000000 0.000000 0.000000 1.590220 0.824712 0.134149 -3.999149 4.118883 1.693344 0.264246 -1.990733 -5.122166 3.422648 -1.701279 8.676365 0.000000 0.000000 0.000000 0.000000 0.000000 0.000000 2.154625 -0.004840 -0.049597 -0.584603 3.208759 -0.286839 -0.678638 -3.305028 0.266557 3.863567 2.895902 -0.162407 0.000000 0.000000 0.000000 0.000000 0.000000 0.000000 5.399161 1.541799 -39.301579 -5.472424 -6.618576 -1.171630 8.250345 5.249264 4.036248 0.000000 0.000000 0.000000 1.344220 1.417349 -40.067551 -0.471679 -1.889755 -0.180880 -0.545135 -1.431597 0.878638 0.000000 0.000000 0.000000
21.505991 72.383770 236.387522 0.091601 -0.098034 46.529146 -1.148036 0.208166 -46.561754 -1.176724 -0.125941 -0.137675 3.946564 -1.686783 -1.911024 0.000000 0.000000 0.000000 2.023467 0.919180 0.163442 -3.142345 3.243105 0.920855 -0.559603 -2.711167 -2.484129 -9.096584 -1.840286 13.664702 0.000000 0.000000 0.000000 0.000000 0.000000 0.000000 3.015204 0.406118 -0.171322 -0.945214 2.955406 -0.158927 -3.204760 -2.471969 -0.383330 4.621682 2.871763 0.242989 0.000000 0.000000 0.000000 0.000000 0.000000 0.000000 5.568295 2.517840 -44.792500 -3.684873 -8.037987 -2.087120 -1.665421 -2.501310 0.252597 0.000000 0.000000 0.000000 0.008125 0.133923 -46.529078 -0.000000 0.000000 0.000000 1.194745 -1.166755 0.278577 0.000000 0.000000 0.000000
21.517883 71.790149 236.333181 -0.682103 -0.573103 49.912190 -1.218939 0.313571 -49.978226 -1.155660 -0.042718 -0.177411 2.006305 -5.287580 -2.541306 0.000000 0.000000 0.000000 2.232101 2.370292 1.832625 2.406726 -3.158525 -2.761861 1.165184 -1.040175 6.108838 -15.267987 4.425067 -10.525943 0.000000 0.000000 0.000000 0.000000 0.000000 0.000000 2.971806 0.452483 0.190735 -1.140846 3.211143 -0.376120 -2.573532 -2.475408 -0.523998 2.157437 4.038626 0.116096 0.000000 0.000000 0.000000 0.000000 0.000000 0.000000 7.208916 5.040271 -46.658572 -0.666110 -11.843638 -3.815439 -4.707115 -12.328928 5.243695 0.000000 0.000000 0.000000 0.877694 -0.152813 -49.914431 1.107240 0.668178 0.017362 0.308732 -2.025019 0.305662 0.000000 0.000000 0.000000
21.640695 70.755315 236.045384 -1.644233 -1.065189 49.168285 -1.388966 0.331199 -49.285305 -1.118196 0.000341 -0.230286 -1.404110 -10.202993 -3.457802 0.000000 0.000000 0.000000 3.358617 3.066806 1.700652 12.779502 -14.988007 -2.985632 0.325361 8.486141 13.691541 1.609934 1.255631 -33.776828 0.000000 0.000000 0.000000 0.000000 0.000000 0.000000 2.582796 0.342706 0.768815 -1.258349 3.758255 -0.750456 -2.448351 -2.589984 -0.941383 -1.010869 5.748578 0.243443 0.000000 0.000000 0.000000 0.000000 0.000000 0.000000 8.404296 6.079803 -45.248068 -0.489227 -14.536391 -4.630149 -2.722816 -6.990780 4.981147 0.000000 0.000000 0.000000 0.531545 -0.013266 -48.962190 3.275948 1.547239 -0.312059 -1.423517 -2.493785 0.718025 0.000000 0.000000 0.000000
22.030169 69.352218 235.481155 -2.484739 -1.422004 44.943198 -1.352046 0.243724 -45.103814 -1.104103 -0.058885 -0.275851 -6.815754 -16.302023 -4.929765 0.000000 0.000000 0.000000 5.130153 2.884483 -0.824100 28.614968 -29.803283 1.135682 -2.864921 25.198997 20.467244 19.255522 -15.456049 -46.731460 0.000000 0.000000 0.000000 0.000000 0.000000 0.000000 0.866002 -0.099304 1.701631 -0.318069 4.580776 -1.506025 -3.485823 -2.559765 -1.657743 -1.282358 5.188836 0.934545 0.000000 0.000000 0.000000 0.000000 0.000000 0.000000 7.345595 7.641032 -40.445308 3.105632 -15.534366 -4.971268 -2.423132 -8.214757 8.427680 0.000000 0.000000 0.000000 -0.041785 0.615679 -44.374807 5.926996 2.191430 -0.786830 -2.364298 -3.705929 1.195652 0.000000 0.000000 0.000000
22.598918 67.594730 234.706074 -3.492087 -2.182447 36.866496 -1.532459 0.040727 -37.109688 -0.960016 0.115119 -0.316907 -13.271747 -22.067389 -6.846109 0.000000 0.000000 0.000000 7.508838 1.478130 -4.672818 47.066725 -38.138327 11.573185 -8.610912 40.509900 22.244304 23.447774 -20.420255 -43.385306 0.000000 0.000000 0.000000 0.000000 0.000000 0.000000 -1.342091 -0.403740 2.907940 0.645507 5.616773 -2.444633 -3.842600 -3.025584 -2.412495 -2.127130 4.631163 1.688715 0.000000 0.000000 0.000000 0.000000 0.000000 0.000000 5.202106 8.193843 -32.452062 6.648522 -14.205758 -4.591150 3.396309 -3.686191 13.853682 0.000000 0.000000 0.000000 -0.465920 1.774173 -35.782353 8.957156 2.465406 -1.389255 -8.006777 -4.984040 2.683726 0.000000 0.000000 0.000000
23.320566 65.552385 233.806876 -4.392097 -3.008348 22.774932 -1.503232 -0.269968 -23.103836 -0.580052 0.522029 -0.316529 -20.610499 -27.354189 -9.311781 0.000000 0.000000 0.000000 9.137607 -2.457781 -8.338507 59.304951 -38.066178 19.130515 -8.800691 51.489937 14.744999 21.245506 -20.174847 -37.164569 0.000000 0.000000 0.000000 0.000000 0.000000 0.000000 -4.150531 -1.070669 4.121019 1.565534 6.714495 -3.410527 -4.637443 -3.544170 -3.383537 -1.252657 3.908159 2.581507 0.000000 0.000000 0.000000 0.000000 0.000000 0.000000 2.329919 7.029231 -19.327163 10.519408 -10.659340 -3.686382 15.006606 16.673089 15.031084 0.000000 0.000000 0.000000 -1.612274 3.491580 -20.903741 12.249313 1.893760 -2.086697 -18.789579 -6.307390 5.013037 0.000000 0.000000 0.000000
